<?xml version="1.0" standalone="no"?><!DOCTYPE svg PUBLIC "-//W3C//DTD SVG 1.1//EN" "http://www.w3.org/Graphics/SVG/1.1/DTD/svg11.dtd"><svg t="1716723767060" class="icon" viewBox="0 0 1024 1024" version="1.1" xmlns="http://www.w3.org/2000/svg" p-id="4091" xmlns:xlink="http://www.w3.org/1999/xlink" width="400" height="400"><path d="M383.953455 642.978909V449.629091l126.268509 0.009309c-0.111709-2.792727-0.167564-5.585455-0.167564-8.406109 0-111.429818 90.326109-201.755927 201.746618-201.755927 111.429818 0 201.755927 90.326109 201.755927 201.755927 0 102.884073-77.014109 187.782982-176.5376 200.192v1.554618H383.953455z" fill="#DDE5FF" p-id="4092"></path><path d="M383.953455 373.983418m-269.0048 0a269.0048 269.0048 0 1 0 538.0096 0 269.0048 269.0048 0 1 0-538.0096 0Z" fill="#ECF1FF" p-id="4093"></path><path d="M556.909424 437.238796m26.243052 9.55169l0 0q26.243052 9.55169 16.691362 35.794742l-85.965208 236.187469q-9.55169 26.243052-35.794742 16.691362l0 0q-26.243052-9.55169-16.691362-35.794742l85.965208-236.187469q9.55169-26.243052 35.794742-16.691362Z" fill="#92D0FF" p-id="4094"></path><path d="M446.976 822.607127a27.927273 27.927273 0 0 1 16.6912 35.793455l-10.6496 29.249163a27.927273 27.927273 0 1 1-52.484655-19.111563l10.6496-29.239855a27.927273 27.927273 0 0 1 35.793455-16.6912zM629.275927 811.259345a27.927273 27.927273 0 0 1 16.6912 35.793455l-15.378618 42.263273A27.927273 27.927273 0 0 1 578.094545 870.213818l15.387928-42.263273a27.927273 27.927273 0 0 1 35.793454-16.6912zM288.600436 791.803345a27.927273 27.927273 0 0 1 16.6912 35.802764l-19.828363 54.504727a27.927273 27.927273 0 1 1-52.493964-19.102254l19.837673-54.504727a27.927273 27.927273 0 0 1 35.793454-16.70051z" fill="#88B5FF" p-id="4095"></path><path d="M343.636045 501.539907m26.243052 9.55169l0 0q26.243052 9.55169 16.691363 35.794741l-35.952561 98.778849q-9.55169 26.243052-35.794742 16.691362l0 0q-26.243052-9.55169-16.691362-35.794742l35.95256-98.778848q9.55169-26.243052 35.794742-16.691362Z" fill="#92D0FF" p-id="4096"></path><path d="M697.378316 512.002764m26.243052 9.551689l0 0q26.243052 9.55169 16.691362 35.794742l-35.95256 98.778848q-9.55169 26.243052-35.794742 16.691363l0 0q-26.243052-9.55169-16.691362-35.794742l35.95256-98.778848q9.55169-26.243052 35.794742-16.691363Z" fill="#92D0FF" p-id="4097"></path></svg>