<?xml version="1.0" standalone="no"?><!DOCTYPE svg PUBLIC "-//W3C//DTD SVG 1.1//EN" "http://www.w3.org/Graphics/SVG/1.1/DTD/svg11.dtd"><svg t="1716724031185" class="icon" viewBox="0 0 1038 1024" version="1.1" xmlns="http://www.w3.org/2000/svg" p-id="15086" xmlns:xlink="http://www.w3.org/1999/xlink" width="405.46875" height="400"><path d="M670.164114 111.952457c-115.390171-0.6144-216.429714 61.586286-271.228343 154.8288a242.190629 242.190629 0 0 0-98.450285-21.562514c-137.245257-1.404343-248.510171 109.056-249.2416 247.354514-0.131657 13.253486 0.936229 26.375314 2.794057 39.160686l0.599771 4.154514C70.2464 627.989943 150.498743 694.930286 243.229257 694.930286H734.383543c101.434514 0 192.833829-63.049143 227.766857-158.983315 0.468114-1.3312 1.009371-2.808686 1.536-4.213028a317.147429 317.147429 0 0 0 17.671314-104.565029c0.058514-173.714286-138.708114-314.280229-311.222857-315.216457" fill="#7ed8fb" p-id="15087"></path><path d="M190.200686 760.685714m29.257143 0l599.771428 0q29.257143 0 29.257143 29.257143l0 0q0 29.257143-29.257143 29.257143l-599.771428 0q-29.257143 0-29.257143-29.257143l0 0q0-29.257143 29.257143-29.257143Z" fill="#7ed8fb" p-id="15088"></path><path d="M190.200686 863.085714m29.257143 0l599.771428 0q29.257143 0 29.257143 29.257143l0 0q0 29.257143-29.257143 29.257143l-599.771428 0q-29.257143 0-29.257143-29.257143l0 0q0-29.257143 29.257143-29.257143Z" fill="#7ed8fb" p-id="15089"></path></svg>